<?xml version="1.0" standalone="no"?>
<!DOCTYPE svg PUBLIC "-//W3C//DTD SVG 20010904//EN"
 "http://www.w3.org/TR/2001/REC-SVG-20010904/DTD/svg10.dtd">
<svg version="1.0" xmlns="http://www.w3.org/2000/svg"
 width="800.000000pt" height="800.000000pt" viewBox="0 0 800.000000 800.000000"
 preserveAspectRatio="xMidYMid meet">

<g transform="translate(0.000000,800.000000) scale(0.100000,-0.100000)"
fill="#8690a0" stroke="none">
<path d="M2919 6292 c-1235 -814 -1924 -1683 -2083 -2627 -28 -162 -38 -390
-26 -560 33 -476 164 -805 428 -1077 295 -304 646 -448 1093 -448 291 0 547
56 769 168 127 63 220 132 336 247 198 197 299 384 340 635 24 143 24 530 1
630 -67 287 -180 495 -376 690 -200 199 -442 327 -711 376 -123 22 -344 23
-462 1 -174 -32 -365 -109 -513 -206 l-60 -40 -3 42 c-5 55 14 180 44 294 77
297 253 597 540 917 192 215 595 553 932 780 56 39 102 73 102 76 0 10 -140
225 -149 228 -4 1 -95 -55 -202 -126z"/>
<path d="M6290 6331 c-372 -240 -727 -512 -1015 -777 -396 -366 -679 -731
-880 -1139 -193 -390 -276 -735 -276 -1150 -1 -439 84 -759 279 -1055 63 -95
251 -289 350 -360 252 -182 546 -270 893 -270 362 1 654 81 914 250 94 61 294
261 378 378 306 426 345 951 105 1413 -60 116 -143 229 -240 328 -472 478
-1232 528 -1768 116 -32 -25 -63 -45 -69 -45 -36 0 17 337 81 520 179 509 665
1048 1401 1550 76 52 136 99 135 105 -5 19 -133 214 -143 218 -6 3 -71 -34
-145 -82z"/>
</g>
</svg>
